<svg width="32" height="32" viewBox="0 0 32 32" fill="none" xmlns="http://www.w3.org/2000/svg">
<g id="route">
<path id="Icon" d="M15.3333 6.66675H15.9125C19.9755 6.66675 22.007 6.66675 22.7782 7.39647C23.4448 8.02724 23.7402 8.95646 23.5602 9.85636C23.352 10.8974 21.6935 12.0706 18.3764 14.4168L12.9569 18.25C9.63986 20.5963 7.98131 21.7694 7.7731 22.8105C7.59313 23.7104 7.88855 24.6396 8.55514 25.2704C9.3263 26.0001 11.3578 26.0001 15.4208 26.0001H16.6667M10.6667 6.66675C10.6667 8.87589 8.8758 10.6667 6.66666 10.6667C4.45752 10.6667 2.66666 8.87589 2.66666 6.66675C2.66666 4.45761 4.45752 2.66675 6.66666 2.66675C8.8758 2.66675 10.6667 4.45761 10.6667 6.66675ZM29.3333 25.3334C29.3333 27.5426 27.5425 29.3334 25.3333 29.3334C23.1242 29.3334 21.3333 27.5426 21.3333 25.3334C21.3333 23.1243 23.1242 21.3334 25.3333 21.3334C27.5425 21.3334 29.3333 23.1243 29.3333 25.3334Z" stroke="white" stroke-width="2" stroke-linecap="round" stroke-linejoin="round"/>
</g>
</svg>
